<?xml version="1.0" encoding="utf-8" standalone="no"?>
<!DOCTYPE svg PUBLIC "-//W3C//DTD SVG 1.1//EN"
  "http://www.w3.org/Graphics/SVG/1.1/DTD/svg11.dtd">
<!-- Created with matplotlib (http://matplotlib.org/) -->
<svg height="432pt" version="1.1" viewBox="0 0 576 432" width="576pt" xmlns="http://www.w3.org/2000/svg" xmlns:xlink="http://www.w3.org/1999/xlink">
 <defs>
  <style type="text/css">
*{stroke-linecap:butt;stroke-linejoin:round;}
  </style>
 </defs>
 <g id="figure_1">
  <g id="patch_1">
   <path d="
M0 432
L576 432
L576 0
L0 0
z
" style="fill:#ffffff;"/>
  </g>
  <g id="axes_1">
   <g id="patch_2">
    <path d="
M72 388.8
L518.4 388.8
L518.4 43.2
L72 43.2
z
" style="fill:#ffffff;"/>
   </g>
   <g id="patch_3">
    <path clip-path="url(#p7ff5b81e1d)" d="
M158.477 388.8
L158.477 43.2
L159.161 43.2
L159.161 388.8
z
" style="fill:#ff0000;opacity:0.4;"/>
   </g>
   <g id="patch_4">
    <path clip-path="url(#p7ff5b81e1d)" d="
M298.618 388.8
L298.618 43.2
L299.302 43.2
L299.302 388.8
z
" style="fill:#ff0000;opacity:0.4;"/>
   </g>
   <g id="patch_5">
    <path clip-path="url(#p7ff5b81e1d)" d="
M307.505 388.8
L307.505 43.2
L308.189 43.2
L308.189 388.8
z
" style="fill:#ff0000;opacity:0.4;"/>
   </g>
   <g id="patch_6">
    <path clip-path="url(#p7ff5b81e1d)" d="
M324.595 388.8
L324.595 43.2
L325.279 43.2
L325.279 388.8
z
" style="fill:#ff0000;opacity:0.4;"/>
   </g>
   <g id="patch_7">
    <path clip-path="url(#p7ff5b81e1d)" d="
M368.347 388.8
L368.347 43.2
L369.03 43.2
L369.03 388.8
z
" style="fill:#ff0000;opacity:0.4;"/>
   </g>
   <g id="patch_8">
    <path clip-path="url(#p7ff5b81e1d)" d="
M438.075 388.8
L438.075 43.2
L438.759 43.2
L438.759 388.8
z
" style="fill:#ff0000;opacity:0.4;"/>
   </g>
   <g id="patch_9">
    <path clip-path="url(#p7ff5b81e1d)" d="
M438.759 388.8
L438.759 43.2
L439.443 43.2
L439.443 388.8
z
" style="fill:#ff0000;opacity:0.4;"/>
   </g>
   <g id="patch_10">
    <path clip-path="url(#p7ff5b81e1d)" d="
M455.849 388.8
L455.849 43.2
L456.533 43.2
L456.533 388.8
z
" style="fill:#ff0000;opacity:0.4;"/>
   </g>
   <g id="patch_11">
    <path clip-path="url(#p7ff5b81e1d)" d="
M472.256 388.8
L472.256 43.2
L472.94 43.2
L472.94 388.8
z
" style="fill:#ff0000;opacity:0.4;"/>
   </g>
   <g id="patch_12">
    <path clip-path="url(#p7ff5b81e1d)" d="
M473.623 388.8
L473.623 43.2
L474.307 43.2
L474.307 388.8
z
" style="fill:#ff0000;opacity:0.4;"/>
   </g>
   <g id="patch_13">
    <path clip-path="url(#p7ff5b81e1d)" d="
M490.714 388.8
L490.714 43.2
L491.397 43.2
L491.397 388.8
z
" style="fill:#ff0000;opacity:0.4;"/>
   </g>
   <g id="patch_14">
    <path clip-path="url(#p7ff5b81e1d)" d="
M499.601 388.8
L499.601 43.2
L500.284 43.2
L500.284 388.8
z
" style="fill:#ff0000;opacity:0.4;"/>
   </g>
   <g id="patch_15">
    <path clip-path="url(#p7ff5b81e1d)" d="
M504.386 388.8
L504.386 43.2
L505.07 43.2
L505.07 388.8
z
" style="fill:#ff0000;opacity:0.4;"/>
   </g>
   <g id="patch_16">
    <path clip-path="url(#p7ff5b81e1d)" d="
M508.488 388.8
L508.488 43.2
L509.171 43.2
L509.171 388.8
z
" style="fill:#ff0000;opacity:0.4;"/>
   </g>
   <g id="patch_17">
    <path clip-path="url(#p7ff5b81e1d)" d="
M509.855 388.8
L509.855 43.2
L510.538 43.2
L510.538 388.8
z
" style="fill:#ff0000;opacity:0.4;"/>
   </g>
   <g id="line2d_1">
    <path clip-path="url(#p7ff5b81e1d)" d="
M72 366.974
L72.6836 368.888
L73.3672 372.372
L74.0508 372.245
L74.7345 366.578
L75.4181 369.064
L76.1017 369.3
L76.7853 374.536
L77.4689 373.897
L78.1525 376.936
L78.8361 368.003
L79.5198 367.094
L80.2034 365.736
L80.887 368.417
L81.5706 369.845
L82.2542 370.708
L82.9378 371.204
L83.6214 372.198
L84.3051 367.699
L84.9887 362.305
L85.6723 362.897
L86.3559 362.099
L87.0395 363.693
L87.7231 367.19
L88.4067 364.342
L89.0904 366.602
L89.774 361.715
L90.4576 364.893
L91.1412 364.23
L91.8248 365.442
L92.5084 364.352
L93.192 362.276
L93.8757 364.563
L94.5593 363.734
L95.2429 365.254
L95.9265 365.727
L96.6101 368.596
L97.2937 364.523
L97.9773 369.196
L98.6609 368.533
L99.3446 368.482
L100.028 371.676
L100.712 373.439
L101.395 371.29
L102.079 376.815
L102.763 373.727
L103.446 374.678
L104.13 376.175
L104.813 373.958
L105.497 377.339
L106.181 372.903
L106.864 375.048
L107.548 374.632
L108.232 376.173
L108.915 375.433
L109.599 378.338
L110.282 376.565
L110.966 375.244
L111.65 373.503
L112.333 372.817
L113.017 371.941
L113.7 379.367
L114.384 372.334
L115.068 357.81
L115.751 370.92
L116.435 378.65
L117.119 367.923
L117.802 371.597
L118.486 369.731
L119.169 375.663
L119.853 368.925
L120.537 363.426
L121.22 360.231
L121.904 365.561
L122.587 366.502
L123.271 363.319
L123.955 370.474
L124.638 365.596
L125.322 364.266
L126.006 363.392
L126.689 363.696
L127.373 364.628
L128.056 366.501
L128.74 363.721
L129.424 359.157
L130.107 359.753
L130.791 363.102
L131.474 356.776
L132.158 365.662
L132.842 365.289
L133.525 355.253
L134.209 356.048
L134.892 353.198
L135.576 351.484
L136.26 348.718
L136.943 343.718
L137.627 346.952
L138.311 347.372
L138.994 343.216
L139.678 343.517
L140.361 342.389
L141.045 346.755
L141.729 338.038
L142.412 336.372
L143.096 336.644
L143.779 339.12
L144.463 338.033
L145.147 339.832
L145.83 337.048
L146.514 335.647
L147.198 332.608
L147.881 332.476
L148.565 337.265
L149.248 335.639
L149.932 368.951
L150.616 336.454
L151.299 347.926
L151.983 337.082
L152.666 344.779
L153.35 339.305
L154.034 341.71
L154.717 343.665
L155.401 335.635
L156.085 343.823
L156.768 337.13
L157.452 351.411
L158.135 343.53
L158.819 223.621
L159.503 340.871
L160.186 356.607
L160.87 331.809
L161.553 340.297
L162.237 335.406
L162.921 338.897
L163.604 328.006
L164.288 338.754
L164.972 335.199
L165.655 334.586
L166.339 338.059
L167.022 332.769
L167.706 337.954
L168.39 327.989
L169.073 327.341
L169.757 326.124
L170.44 323.285
L171.124 318.871
L171.808 325.88
L172.491 324.493
L173.175 316.811
L173.858 317.54
L174.542 321.402
L175.226 315.56
L175.909 322.412
L176.593 314.79
L177.277 312.684
L177.96 309.745
L178.644 314.963
L179.327 311.291
L180.011 313.715
L180.695 313.201
L181.378 312.502
L182.062 310.482
L182.745 312.877
L183.429 307.593
L184.113 311.374
L184.796 309.436
L185.48 314.905
L186.164 313.156
L187.531 308.724
L188.214 308.434
L188.898 306.986
L189.582 311.45
L190.265 309.758
L190.949 315.722
L191.632 313.985
L192.316 315.068
L193 312.228
L193.683 320.251
L194.367 312.39
L195.051 312.624
L195.734 311.164
L196.418 314.353
L197.101 313.74
L197.785 315.585
L198.469 312.464
L199.152 315.564
L199.836 313.61
L200.519 314.519
L201.203 315.741
L201.887 312.359
L202.57 312.036
L203.254 310.611
L203.938 313.013
L204.621 316.156
L205.305 313.038
L205.988 314.856
L206.672 309.057
L207.356 314.396
L208.039 316.673
L208.723 317.541
L209.406 318.654
L210.09 323.706
L210.774 317.649
L211.457 320.077
L212.141 326.055
L212.825 324.844
L213.508 326.25
L214.875 330.595
L215.559 334.982
L216.243 338.177
L216.926 337.035
L217.61 339.61
L218.293 335.454
L218.977 338.149
L220.344 333.104
L221.028 342.356
L221.711 337.475
L222.395 346.091
L223.079 339.505
L223.762 342.141
L224.446 346.995
L225.13 347.697
L225.813 346.516
L226.497 348.149
L228.548 338.349
L229.231 338.812
L229.915 334.043
L230.598 335.396
L231.282 335.218
L231.966 338.418
L232.649 332.24
L233.333 330.665
L234.017 326.137
L234.7 327.248
L235.384 320.168
L236.067 321.322
L236.751 320.871
L237.435 305.884
L238.118 312.688
L238.802 305.08
L239.485 310.868
L240.853 308.568
L241.536 305.035
L242.22 302.442
L242.904 301.761
L243.587 295.78
L244.271 294.862
L244.954 296.864
L245.638 291.515
L246.322 293.396
L247.005 294.033
L247.689 291.055
L248.372 286.124
L249.056 284.512
L249.74 285.959
L250.423 281.606
L251.107 288.676
L251.791 291.181
L252.474 290.8
L253.158 289.003
L253.841 284.007
L254.525 284.998
L255.209 271.879
L255.892 286.21
L256.576 285.007
L257.259 286.588
L257.943 284.397
L258.627 285.368
L259.31 289.248
L259.994 290.496
L260.677 292.649
L261.361 294.118
L262.045 290.914
L262.728 292.373
L264.096 282.918
L264.779 289.516
L265.463 288.074
L266.146 289.476
L266.83 296.964
L267.514 293.907
L268.197 305.078
L268.881 305.057
L269.564 303.594
L270.248 306.457
L270.932 297.748
L271.615 309.012
L272.299 286.559
L272.983 307.147
L273.666 309.409
L274.35 313.525
L275.033 307.911
L275.717 313.022
L276.401 315.511
L277.084 309.946
L277.768 317.349
L278.451 308.549
L279.135 306.993
L279.819 300.806
L280.502 303.518
L281.186 297.196
L281.87 299.774
L282.553 294.071
L283.237 294.131
L283.92 292.898
L284.604 288.482
L285.288 280.865
L285.971 287.082
L286.655 277.368
L287.338 280.838
L288.022 274.299
L288.706 275.379
L289.389 271.098
L290.073 247.073
L290.757 259.743
L291.44 256.759
L292.124 266.716
L292.807 258.545
L293.491 252.657
L294.858 246.615
L295.542 234.494
L296.225 256.565
L296.909 249.244
L297.593 246.65
L298.276 252.179
L298.96 190.263
L299.643 249.983
L300.327 227.972
L301.011 248.962
L301.694 239.441
L302.378 250.757
L303.062 238.701
L303.745 247.49
L304.429 247.054
L305.112 244.78
L305.796 240.362
L306.48 238.267
L307.163 227.781
L307.847 177.994
L308.53 257.665
L309.214 221.009
L309.898 255.107
L310.581 239.996
L311.265 257.552
L311.949 235.951
L312.632 256.546
L313.316 260.405
L313.999 254.986
L314.683 260.53
L315.367 268.032
L316.05 255.72
L316.734 265.118
L317.417 280.021
L318.101 276.454
L318.785 285.88
L319.468 284.487
L320.152 293.453
L320.836 299.992
L321.519 305.32
L322.203 297.929
L322.886 306.877
L323.57 293.637
L324.254 316.797
L324.937 252.292
L325.621 323.443
L326.304 316.694
L326.988 334.481
L327.672 326.209
L328.355 328.168
L329.039 324.08
L329.723 318.907
L330.406 322.12
L331.09 318.504
L331.773 319.294
L332.457 320.819
L333.141 319.161
L333.824 304.085
L334.508 302.11
L335.191 312.325
L335.875 304.354
L336.559 302.5
L337.242 306.494
L337.926 306.106
L338.609 298.756
L339.293 302.707
L339.977 299.774
L340.66 299.465
L341.344 294.719
L342.028 296.029
L342.711 297.826
L343.395 293.623
L344.078 290.491
L344.762 293.379
L345.446 291.868
L346.129 287.295
L346.813 286.212
L347.496 288.774
L348.18 288.449
L348.864 293.213
L349.547 289.499
L350.231 287.72
L350.915 287.012
L351.598 286.027
L352.282 288.363
L352.965 286.253
L353.649 290.701
L354.333 292.387
L355.016 293.102
L355.7 290.217
L356.383 295.104
L357.067 295.222
L357.751 293.333
L358.434 295.611
L359.118 296.597
L359.802 292.298
L360.485 296.649
L361.169 296.876
L361.852 303.926
L362.536 303.493
L363.22 305.827
L363.903 310.645
L364.587 309.667
L365.27 315.723
L365.954 314.078
L366.638 318.101
L367.321 317.203
L368.005 319.837
L368.689 293.447
L369.372 330.035
L370.056 336.838
L370.739 336.847
L371.423 343.577
L372.107 346.608
L373.474 346.122
L374.157 355.564
L375.525 360.752
L376.208 366.159
L376.892 363.391
L377.575 353.073
L378.259 366.306
L378.943 366.779
L379.626 368.83
L380.31 367.053
L380.994 370.019
L381.677 366.299
L382.361 366.767
L383.044 366.856
L383.728 364.917
L384.412 368.547
L385.095 365.054
L385.779 363.619
L386.462 372.732
L387.146 359.716
L387.83 358.336
L388.513 361.881
L389.197 360.967
L389.881 356.753
L390.564 354.671
L391.248 344.203
L391.931 341.15
L392.615 336.469
L393.299 342.291
L393.982 336.632
L394.666 351.599
L395.349 382.227
L396.033 330.564
L396.717 354.472
L397.4 328.894
L398.084 338.419
L398.768 328.426
L399.451 345.705
L400.135 326.259
L400.818 325.844
L401.502 320.665
L402.186 326.267
L402.869 316.204
L403.553 344.802
L404.236 314.65
L404.92 318.35
L405.604 314.975
L406.971 310.448
L407.655 302.929
L408.338 307.905
L409.022 300.796
L409.705 306.795
L410.389 304.745
L411.073 305.526
L411.756 310.269
L412.44 328.631
L413.123 315.206
L413.807 311.656
L414.491 318.127
L415.174 317.275
L415.858 321.63
L416.542 322.808
L417.225 329.622
L417.909 333.742
L418.592 335.915
L419.276 337.524
L419.96 345.469
L420.643 348.843
L421.327 358.389
L422.01 354.941
L422.694 354.979
L423.378 358.767
L424.061 355.018
L424.745 370.765
L425.428 361.939
L426.112 364.17
L426.796 354.285
L427.479 359.125
L428.163 356.079
L428.847 357.646
L429.53 352.856
L430.214 370.427
L430.897 347.789
L431.581 343.125
L432.265 337.585
L432.948 342.732
L433.632 335.967
L434.315 334.196
L434.999 322.553
L435.683 330.898
L437.05 316.035
L437.734 324.833
L438.417 279.295
L439.101 226.021
L439.784 320.915
L440.468 316.055
L441.152 320.683
L441.835 318.453
L442.519 320.022
L443.202 317.546
L443.886 318.075
L444.57 320.723
L445.937 324.948
L446.621 323.088
L447.304 320.128
L447.988 318.1
L448.671 324.71
L449.355 319.21
L450.039 319.501
L450.722 311.19
L451.406 316.936
L452.773 307.792
L453.457 315.752
L454.14 314.784
L454.824 314.822
L455.508 315.241
L456.191 262.123
L456.875 310.293
L457.558 306.322
L458.242 307.506
L459.609 293.664
L460.293 295.207
L460.976 310.351
L461.66 313.071
L462.344 307.253
L463.027 308.83
L463.711 303.489
L464.394 311.257
L465.078 295.933
L465.762 311.916
L466.445 315.745
L467.129 317.416
L467.813 312.737
L468.496 318.502
L469.18 314.394
L469.863 319.103
L471.231 304.326
L471.914 319.194
L472.598 266.358
L473.281 330.984
L473.942 -1
M473.988 -1
L474.649 334.574
L475.332 328.209
L476.016 330.978
L476.7 338.723
L477.383 339.681
L478.067 337.267
L478.75 344.07
L480.118 334.714
L480.801 335.595
L481.485 330.782
L482.168 332.755
L482.852 333.091
L483.536 325.606
L484.219 328.509
L485.587 323.329
L486.27 324.136
L486.954 311.541
L487.637 307.75
L488.321 300.68
L489.005 297.998
L489.688 298.067
L490.372 296.465
L491.055 211.817
L491.739 289.48
L492.423 279.871
L493.106 282.053
L493.79 276.598
L494.474 276.488
L495.157 265.641
L495.841 264.185
L496.524 267.931
L497.208 266.027
L497.892 265.453
L498.575 255.743
L499.259 266.21
L499.942 219.904
L500.626 265.501
L501.31 269.155
L501.993 271.014
L503.36 272.744
L504.044 272.813
L504.728 275.011
L505.411 282.517
L506.095 283.314
L506.779 288.408
L507.462 260.888
L508.146 291.748
L508.439 -1
M509.217 -1
L509.513 297.698
L510.197 248.518
L510.88 296.297
L511.564 267.929
L512.247 298.061
L512.931 258.627
L513.615 297.436
L514.298 278.833
L514.982 283.778
L515.666 293.921
L516.349 279.805
L517.033 284.449
L517.716 268.912
L518.4 287.121
L518.4 287.121" style="fill:none;stroke:#0000ff;stroke-linecap:square;"/>
   </g>
   <g id="matplotlib.axis_1">
    <g id="xtick_1">
     <g id="line2d_2">
      <defs>
       <path d="
M0 0
L0 -4" id="m93b0483c22" style="stroke:#000000;stroke-width:0.5;"/>
      </defs>
      <g>
       <use style="stroke:#000000;stroke-width:0.5;" x="72.0" xlink:href="#m93b0483c22" y="388.8"/>
      </g>
     </g>
     <g id="line2d_3">
      <defs>
       <path d="
M0 0
L0 4" id="m741efc42ff" style="stroke:#000000;stroke-width:0.5;"/>
      </defs>
      <g>
       <use style="stroke:#000000;stroke-width:0.5;" x="72.0" xlink:href="#m741efc42ff" y="43.2"/>
      </g>
     </g>
     <g id="text_1">
      <!-- 0 -->
      <defs>
       <path d="
M4.15625 35.2969
Q4.15625 48 6.76562 55.7344
Q9.375 63.4844 14.5156 67.6719
Q19.6719 71.875 27.4844 71.875
Q33.25 71.875 37.5938 69.5469
Q41.9375 67.2344 44.7656 62.8594
Q47.6094 58.5 49.2188 52.2188
Q50.8281 45.9531 50.8281 35.2969
Q50.8281 22.7031 48.2344 14.9688
Q45.6562 7.23438 40.5 3
Q35.3594 -1.21875 27.4844 -1.21875
Q17.1406 -1.21875 11.2344 6.20312
Q4.15625 15.1406 4.15625 35.2969
M13.1875 35.2969
Q13.1875 17.6719 17.3125 11.8281
Q21.4375 6 27.4844 6
Q33.5469 6 37.6719 11.8594
Q41.7969 17.7188 41.7969 35.2969
Q41.7969 52.9844 37.6719 58.7812
Q33.5469 64.5938 27.3906 64.5938
Q21.3438 64.5938 17.7188 59.4688
Q13.1875 52.9375 13.1875 35.2969" id="ArialMT-30"/>
      </defs>
      <g transform="translate(69.1996875 401.389375)scale(0.12 -0.12)">
       <use xlink:href="#ArialMT-30"/>
      </g>
     </g>
    </g>
    <g id="xtick_2">
     <g id="line2d_4">
      <g>
       <use style="stroke:#000000;stroke-width:0.5;" x="140.361408882" xlink:href="#m93b0483c22" y="388.8"/>
      </g>
     </g>
     <g id="line2d_5">
      <g>
       <use style="stroke:#000000;stroke-width:0.5;" x="140.361408882" xlink:href="#m741efc42ff" y="43.2"/>
      </g>
     </g>
     <g id="text_2">
      <!-- 100 -->
      <defs>
       <path d="
M37.25 0
L28.4688 0
L28.4688 56
Q25.2969 52.9844 20.1406 49.9531
Q14.9844 46.9219 10.8906 45.4062
L10.8906 53.9062
Q18.2656 57.375 23.7812 62.2969
Q29.2969 67.2344 31.5938 71.875
L37.25 71.875
z
" id="ArialMT-31"/>
      </defs>
      <g transform="translate(131.292033882 401.389375)scale(0.12 -0.12)">
       <use xlink:href="#ArialMT-31"/>
       <use x="55.615234375" xlink:href="#ArialMT-30"/>
       <use x="111.23046875" xlink:href="#ArialMT-30"/>
      </g>
     </g>
    </g>
    <g id="xtick_3">
     <g id="line2d_6">
      <g>
       <use style="stroke:#000000;stroke-width:0.5;" x="208.722817764" xlink:href="#m93b0483c22" y="388.8"/>
      </g>
     </g>
     <g id="line2d_7">
      <g>
       <use style="stroke:#000000;stroke-width:0.5;" x="208.722817764" xlink:href="#m741efc42ff" y="43.2"/>
      </g>
     </g>
     <g id="text_3">
      <!-- 200 -->
      <defs>
       <path d="
M50.3438 8.45312
L50.3438 0
L3.03125 0
Q2.9375 3.17188 4.04688 6.10938
Q5.85938 10.9375 9.82812 15.625
Q13.8125 20.3125 21.3438 26.4688
Q33.0156 36.0312 37.1094 41.625
Q41.2188 47.2188 41.2188 52.2031
Q41.2188 57.4219 37.4688 61
Q33.7344 64.5938 27.7344 64.5938
Q21.3906 64.5938 17.5781 60.7812
Q13.7656 56.9844 13.7188 50.25
L4.6875 51.1719
Q5.60938 61.2812 11.6562 66.5781
Q17.7188 71.875 27.9375 71.875
Q38.2344 71.875 44.2344 66.1562
Q50.25 60.4531 50.25 52
Q50.25 47.7031 48.4844 43.5469
Q46.7344 39.4062 42.6562 34.8125
Q38.5781 30.2188 29.1094 22.2188
Q21.1875 15.5781 18.9375 13.2031
Q16.7031 10.8438 15.2344 8.45312
z
" id="ArialMT-32"/>
      </defs>
      <g transform="translate(199.176255264 401.389375)scale(0.12 -0.12)">
       <use xlink:href="#ArialMT-32"/>
       <use x="55.615234375" xlink:href="#ArialMT-30"/>
       <use x="111.23046875" xlink:href="#ArialMT-30"/>
      </g>
     </g>
    </g>
    <g id="xtick_4">
     <g id="line2d_8">
      <g>
       <use style="stroke:#000000;stroke-width:0.5;" x="277.084226646" xlink:href="#m93b0483c22" y="388.8"/>
      </g>
     </g>
     <g id="line2d_9">
      <g>
       <use style="stroke:#000000;stroke-width:0.5;" x="277.084226646" xlink:href="#m741efc42ff" y="43.2"/>
      </g>
     </g>
     <g id="text_4">
      <!-- 300 -->
      <defs>
       <path d="
M4.20312 18.8906
L12.9844 20.0625
Q14.5 12.5938 18.1406 9.29688
Q21.7812 6 27 6
Q33.2031 6 37.4688 10.2969
Q41.75 14.5938 41.75 20.9531
Q41.75 27 37.7969 30.9219
Q33.8438 34.8594 27.7344 34.8594
Q25.25 34.8594 21.5312 33.8906
L22.5156 41.6094
Q23.3906 41.5 23.9219 41.5
Q29.5469 41.5 34.0312 44.4219
Q38.5312 47.3594 38.5312 53.4688
Q38.5312 58.2969 35.25 61.4688
Q31.9844 64.6562 26.8125 64.6562
Q21.6875 64.6562 18.2656 61.4219
Q14.8438 58.2031 13.875 51.7656
L5.07812 53.3281
Q6.6875 62.1562 12.3906 67.0156
Q18.1094 71.875 26.6094 71.875
Q32.4688 71.875 37.3906 69.3594
Q42.3281 66.8438 44.9375 62.5
Q47.5625 58.1562 47.5625 53.2656
Q47.5625 48.6406 45.0625 44.8281
Q42.5781 41.0156 37.7031 38.7656
Q44.0469 37.3125 47.5625 32.6875
Q51.0781 28.0781 51.0781 21.1406
Q51.0781 11.7656 44.2344 5.25
Q37.4062 -1.26562 26.9531 -1.26562
Q17.5312 -1.26562 11.2969 4.34375
Q5.07812 9.96875 4.20312 18.8906" id="ArialMT-33"/>
      </defs>
      <g transform="translate(267.613601646 401.389375)scale(0.12 -0.12)">
       <use xlink:href="#ArialMT-33"/>
       <use x="55.615234375" xlink:href="#ArialMT-30"/>
       <use x="111.23046875" xlink:href="#ArialMT-30"/>
      </g>
     </g>
    </g>
    <g id="xtick_5">
     <g id="line2d_10">
      <g>
       <use style="stroke:#000000;stroke-width:0.5;" x="345.445635528" xlink:href="#m93b0483c22" y="388.8"/>
      </g>
     </g>
     <g id="line2d_11">
      <g>
       <use style="stroke:#000000;stroke-width:0.5;" x="345.445635528" xlink:href="#m741efc42ff" y="43.2"/>
      </g>
     </g>
     <g id="text_5">
      <!-- 400 -->
      <defs>
       <path d="
M32.3281 0
L32.3281 17.1406
L1.26562 17.1406
L1.26562 25.2031
L33.9375 71.5781
L41.1094 71.5781
L41.1094 25.2031
L50.7812 25.2031
L50.7812 17.1406
L41.1094 17.1406
L41.1094 0
z

M32.3281 25.2031
L32.3281 57.4688
L9.90625 25.2031
z
" id="ArialMT-34"/>
      </defs>
      <g transform="translate(335.798760528 401.389375)scale(0.12 -0.12)">
       <use xlink:href="#ArialMT-34"/>
       <use x="55.615234375" xlink:href="#ArialMT-30"/>
       <use x="111.23046875" xlink:href="#ArialMT-30"/>
      </g>
     </g>
    </g>
    <g id="xtick_6">
     <g id="line2d_12">
      <g>
       <use style="stroke:#000000;stroke-width:0.5;" x="413.80704441" xlink:href="#m93b0483c22" y="388.8"/>
      </g>
     </g>
     <g id="line2d_13">
      <g>
       <use style="stroke:#000000;stroke-width:0.5;" x="413.80704441" xlink:href="#m741efc42ff" y="43.2"/>
      </g>
     </g>
     <g id="text_6">
      <!-- 500 -->
      <defs>
       <path d="
M4.15625 18.75
L13.375 19.5312
Q14.4062 12.7969 18.1406 9.39062
Q21.875 6 27.1562 6
Q33.5 6 37.8906 10.7812
Q42.2812 15.5781 42.2812 23.4844
Q42.2812 31 38.0625 35.3438
Q33.8438 39.7031 27 39.7031
Q22.75 39.7031 19.3281 37.7656
Q15.9219 35.8438 13.9688 32.7656
L5.71875 33.8438
L12.6406 70.6094
L48.25 70.6094
L48.25 62.2031
L19.6719 62.2031
L15.8281 42.9688
Q22.2656 47.4688 29.3438 47.4688
Q38.7188 47.4688 45.1562 40.9688
Q51.6094 34.4688 51.6094 24.2656
Q51.6094 14.5469 45.9531 7.46875
Q39.0625 -1.21875 27.1562 -1.21875
Q17.3906 -1.21875 11.2031 4.25
Q5.03125 9.71875 4.15625 18.75" id="ArialMT-35"/>
      </defs>
      <g transform="translate(404.33360691 401.389375)scale(0.12 -0.12)">
       <use xlink:href="#ArialMT-35"/>
       <use x="55.615234375" xlink:href="#ArialMT-30"/>
       <use x="111.23046875" xlink:href="#ArialMT-30"/>
      </g>
     </g>
    </g>
    <g id="xtick_7">
     <g id="line2d_14">
      <g>
       <use style="stroke:#000000;stroke-width:0.5;" x="482.168453292" xlink:href="#m93b0483c22" y="388.8"/>
      </g>
     </g>
     <g id="line2d_15">
      <g>
       <use style="stroke:#000000;stroke-width:0.5;" x="482.168453292" xlink:href="#m741efc42ff" y="43.2"/>
      </g>
     </g>
     <g id="text_7">
      <!-- 600 -->
      <defs>
       <path d="
M49.75 54.0469
L41.0156 53.375
Q39.8438 58.5469 37.7031 60.8906
Q34.125 64.6562 28.9062 64.6562
Q24.7031 64.6562 21.5312 62.3125
Q17.3906 59.2812 14.9844 53.4688
Q12.5938 47.6562 12.5 36.9219
Q15.6719 41.75 20.2656 44.0938
Q24.8594 46.4375 29.8906 46.4375
Q38.6719 46.4375 44.8438 39.9688
Q51.0312 33.5 51.0312 23.25
Q51.0312 16.5 48.125 10.7188
Q45.2188 4.9375 40.1406 1.85938
Q35.0625 -1.21875 28.6094 -1.21875
Q17.625 -1.21875 10.6875 6.85938
Q3.76562 14.9375 3.76562 33.5
Q3.76562 54.25 11.4219 63.6719
Q18.1094 71.875 29.4375 71.875
Q37.8906 71.875 43.2812 67.1406
Q48.6875 62.4062 49.75 54.0469
M13.875 23.1875
Q13.875 18.6562 15.7969 14.5
Q17.7188 10.3594 21.1875 8.17188
Q24.6562 6 28.4688 6
Q34.0312 6 38.0312 10.4844
Q42.0469 14.9844 42.0469 22.7031
Q42.0469 30.125 38.0781 34.3906
Q34.125 38.6719 28.125 38.6719
Q22.1719 38.6719 18.0156 34.3906
Q13.875 30.125 13.875 23.1875" id="ArialMT-36"/>
      </defs>
      <g transform="translate(472.671578292 401.389375)scale(0.12 -0.12)">
       <use xlink:href="#ArialMT-36"/>
       <use x="55.615234375" xlink:href="#ArialMT-30"/>
       <use x="111.23046875" xlink:href="#ArialMT-30"/>
      </g>
     </g>
    </g>
    <g id="text_8">
     <!-- Channel -->
     <defs>
      <path d="
M40.4375 6.39062
Q35.5469 2.25 31.0312 0.53125
Q26.5156 -1.17188 21.3438 -1.17188
Q12.7969 -1.17188 8.20312 3
Q3.60938 7.17188 3.60938 13.6719
Q3.60938 17.4844 5.34375 20.625
Q7.07812 23.7812 9.89062 25.6875
Q12.7031 27.5938 16.2188 28.5625
Q18.7969 29.25 24.0312 29.8906
Q34.6719 31.1562 39.7031 32.9062
Q39.75 34.7188 39.75 35.2031
Q39.75 40.5781 37.25 42.7812
Q33.8906 45.75 27.25 45.75
Q21.0469 45.75 18.0938 43.5781
Q15.1406 41.4062 13.7188 35.8906
L5.125 37.0625
Q6.29688 42.5781 8.98438 45.9688
Q11.6719 49.3594 16.75 51.1875
Q21.8281 53.0312 28.5156 53.0312
Q35.1562 53.0312 39.2969 51.4688
Q43.4531 49.9062 45.4062 47.5312
Q47.3594 45.1719 48.1406 41.5469
Q48.5781 39.3125 48.5781 33.4531
L48.5781 21.7344
Q48.5781 9.46875 49.1406 6.21875
Q49.7031 2.98438 51.375 0
L42.1875 0
Q40.8281 2.73438 40.4375 6.39062
M39.7031 26.0312
Q34.9062 24.0781 25.3438 22.7031
Q19.9219 21.9219 17.6719 20.9375
Q15.4375 19.9688 14.2031 18.0938
Q12.9844 16.2188 12.9844 13.9219
Q12.9844 10.4062 15.6406 8.0625
Q18.3125 5.71875 23.4375 5.71875
Q28.5156 5.71875 32.4688 7.9375
Q36.4219 10.1562 38.2812 14.0156
Q39.7031 17 39.7031 22.7969
z
" id="ArialMT-61"/>
      <path d="
M42.0938 16.7031
L51.1719 15.5781
Q49.0312 7.625 43.2188 3.21875
Q37.4062 -1.17188 28.375 -1.17188
Q17 -1.17188 10.3281 5.82812
Q3.65625 12.8438 3.65625 25.4844
Q3.65625 38.5781 10.3906 45.7969
Q17.1406 53.0312 27.875 53.0312
Q38.2812 53.0312 44.875 45.9531
Q51.4688 38.875 51.4688 26.0312
Q51.4688 25.25 51.4219 23.6875
L12.75 23.6875
Q13.2344 15.1406 17.5781 10.5938
Q21.9219 6.0625 28.4219 6.0625
Q33.25 6.0625 36.6719 8.59375
Q40.0938 11.1406 42.0938 16.7031
M13.2344 30.9062
L42.1875 30.9062
Q41.6094 37.4531 38.875 40.7188
Q34.6719 45.7969 27.9844 45.7969
Q21.9219 45.7969 17.7969 41.75
Q13.6719 37.7031 13.2344 30.9062" id="ArialMT-65"/>
      <path d="
M58.7969 25.0938
L68.2656 22.7031
Q65.2812 11.0312 57.5469 4.90625
Q49.8125 -1.21875 38.625 -1.21875
Q27.0469 -1.21875 19.7969 3.48438
Q12.5469 8.20312 8.76562 17.1406
Q4.98438 26.0781 4.98438 36.3281
Q4.98438 47.5156 9.25 55.8281
Q13.5312 64.1562 21.4062 68.4688
Q29.2969 72.7969 38.7656 72.7969
Q49.5156 72.7969 56.8281 67.3281
Q64.1562 61.8594 67.0469 51.9531
L57.7188 49.75
Q55.2188 57.5625 50.4844 61.125
Q45.75 64.7031 38.5781 64.7031
Q30.3281 64.7031 24.7812 60.7344
Q19.2344 56.7812 16.9844 50.1094
Q14.75 43.4531 14.75 36.375
Q14.75 27.25 17.4062 20.4375
Q20.0625 13.625 25.6719 10.25
Q31.2969 6.89062 37.8438 6.89062
Q45.7969 6.89062 51.3125 11.4688
Q56.8438 16.0625 58.7969 25.0938" id="ArialMT-43"/>
      <path d="
M6.59375 0
L6.59375 71.5781
L15.375 71.5781
L15.375 45.9062
Q21.5312 53.0312 30.9062 53.0312
Q36.6719 53.0312 40.9219 50.75
Q45.1719 48.4844 47 44.4844
Q48.8281 40.4844 48.8281 32.8594
L48.8281 0
L40.0469 0
L40.0469 32.8594
Q40.0469 39.4531 37.1875 42.4531
Q34.3281 45.4531 29.1094 45.4531
Q25.2031 45.4531 21.75 43.4219
Q18.3125 41.4062 16.8438 37.9375
Q15.375 34.4688 15.375 28.375
L15.375 0
z
" id="ArialMT-68"/>
      <path d="
M6.39062 0
L6.39062 71.5781
L15.1875 71.5781
L15.1875 0
z
" id="ArialMT-6c"/>
      <path d="
M6.59375 0
L6.59375 51.8594
L14.5 51.8594
L14.5 44.4844
Q20.2188 53.0312 31 53.0312
Q35.6875 53.0312 39.625 51.3438
Q43.5625 49.6562 45.5156 46.9219
Q47.4688 44.1875 48.25 40.4375
Q48.7344 37.9844 48.7344 31.8906
L48.7344 0
L39.9375 0
L39.9375 31.5469
Q39.9375 36.9219 38.9062 39.5781
Q37.8906 42.2344 35.2812 43.8125
Q32.6719 45.4062 29.1562 45.4062
Q23.5312 45.4062 19.4531 41.8438
Q15.375 38.2812 15.375 28.3281
L15.375 0
z
" id="ArialMT-6e"/>
     </defs>
     <g transform="translate(273.571875 417.36375)scale(0.12 -0.12)">
      <use xlink:href="#ArialMT-43"/>
      <use x="72.216796875" xlink:href="#ArialMT-68"/>
      <use x="127.83203125" xlink:href="#ArialMT-61"/>
      <use x="183.447265625" xlink:href="#ArialMT-6e"/>
      <use x="239.0625" xlink:href="#ArialMT-6e"/>
      <use x="294.677734375" xlink:href="#ArialMT-65"/>
      <use x="350.29296875" xlink:href="#ArialMT-6c"/>
     </g>
    </g>
   </g>
   <g id="matplotlib.axis_2">
    <g id="ytick_1">
     <g id="line2d_16">
      <defs>
       <path d="
M0 0
L4 0" id="m728421d6d4" style="stroke:#000000;stroke-width:0.5;"/>
      </defs>
      <g>
       <use style="stroke:#000000;stroke-width:0.5;" x="72.0" xlink:href="#m728421d6d4" y="388.8"/>
      </g>
     </g>
     <g id="line2d_17">
      <defs>
       <path d="
M0 0
L-4 0" id="mcb0005524f" style="stroke:#000000;stroke-width:0.5;"/>
      </defs>
      <g>
       <use style="stroke:#000000;stroke-width:0.5;" x="518.4" xlink:href="#mcb0005524f" y="388.8"/>
      </g>
     </g>
     <g id="text_9">
      <!-- 0.0 -->
      <defs>
       <path d="
M9.07812 0
L9.07812 10.0156
L19.0938 10.0156
L19.0938 0
z
" id="ArialMT-2e"/>
      </defs>
      <g transform="translate(52.3925 391.9021875)scale(0.12 -0.12)">
       <use xlink:href="#ArialMT-30"/>
       <use x="55.615234375" xlink:href="#ArialMT-2e"/>
       <use x="83.3984375" xlink:href="#ArialMT-30"/>
      </g>
     </g>
    </g>
    <g id="ytick_2">
     <g id="line2d_18">
      <g>
       <use style="stroke:#000000;stroke-width:0.5;" x="72.0" xlink:href="#m728421d6d4" y="345.6"/>
      </g>
     </g>
     <g id="line2d_19">
      <g>
       <use style="stroke:#000000;stroke-width:0.5;" x="518.4" xlink:href="#mcb0005524f" y="345.6"/>
      </g>
     </g>
     <g id="text_10">
      <!-- 0.1 -->
      <g transform="translate(54.021875 348.7021875)scale(0.12 -0.12)">
       <use xlink:href="#ArialMT-30"/>
       <use x="55.615234375" xlink:href="#ArialMT-2e"/>
       <use x="83.3984375" xlink:href="#ArialMT-31"/>
      </g>
     </g>
    </g>
    <g id="ytick_3">
     <g id="line2d_20">
      <g>
       <use style="stroke:#000000;stroke-width:0.5;" x="72.0" xlink:href="#m728421d6d4" y="302.4"/>
      </g>
     </g>
     <g id="line2d_21">
      <g>
       <use style="stroke:#000000;stroke-width:0.5;" x="518.4" xlink:href="#mcb0005524f" y="302.4"/>
      </g>
     </g>
     <g id="text_11">
      <!-- 0.2 -->
      <g transform="translate(52.450625 305.5021875)scale(0.12 -0.12)">
       <use xlink:href="#ArialMT-30"/>
       <use x="55.615234375" xlink:href="#ArialMT-2e"/>
       <use x="83.3984375" xlink:href="#ArialMT-32"/>
      </g>
     </g>
    </g>
    <g id="ytick_4">
     <g id="line2d_22">
      <g>
       <use style="stroke:#000000;stroke-width:0.5;" x="72.0" xlink:href="#m728421d6d4" y="259.2"/>
      </g>
     </g>
     <g id="line2d_23">
      <g>
       <use style="stroke:#000000;stroke-width:0.5;" x="518.4" xlink:href="#mcb0005524f" y="259.2"/>
      </g>
     </g>
     <g id="text_12">
      <!-- 0.3 -->
      <g transform="translate(52.3625 262.3021875)scale(0.12 -0.12)">
       <use xlink:href="#ArialMT-30"/>
       <use x="55.615234375" xlink:href="#ArialMT-2e"/>
       <use x="83.3984375" xlink:href="#ArialMT-33"/>
      </g>
     </g>
    </g>
    <g id="ytick_5">
     <g id="line2d_24">
      <g>
       <use style="stroke:#000000;stroke-width:0.5;" x="72.0" xlink:href="#m728421d6d4" y="216.0"/>
      </g>
     </g>
     <g id="line2d_25">
      <g>
       <use style="stroke:#000000;stroke-width:0.5;" x="518.4" xlink:href="#mcb0005524f" y="216.0"/>
      </g>
     </g>
     <g id="text_13">
      <!-- 0.4 -->
      <g transform="translate(52.398125 219.1021875)scale(0.12 -0.12)">
       <use xlink:href="#ArialMT-30"/>
       <use x="55.615234375" xlink:href="#ArialMT-2e"/>
       <use x="83.3984375" xlink:href="#ArialMT-34"/>
      </g>
     </g>
    </g>
    <g id="ytick_6">
     <g id="line2d_26">
      <g>
       <use style="stroke:#000000;stroke-width:0.5;" x="72.0" xlink:href="#m728421d6d4" y="172.8"/>
      </g>
     </g>
     <g id="line2d_27">
      <g>
       <use style="stroke:#000000;stroke-width:0.5;" x="518.4" xlink:href="#mcb0005524f" y="172.8"/>
      </g>
     </g>
     <g id="text_14">
      <!-- 0.5 -->
      <g transform="translate(52.29875 175.9021875)scale(0.12 -0.12)">
       <use xlink:href="#ArialMT-30"/>
       <use x="55.615234375" xlink:href="#ArialMT-2e"/>
       <use x="83.3984375" xlink:href="#ArialMT-35"/>
      </g>
     </g>
    </g>
    <g id="ytick_7">
     <g id="line2d_28">
      <g>
       <use style="stroke:#000000;stroke-width:0.5;" x="72.0" xlink:href="#m728421d6d4" y="129.6"/>
      </g>
     </g>
     <g id="line2d_29">
      <g>
       <use style="stroke:#000000;stroke-width:0.5;" x="518.4" xlink:href="#mcb0005524f" y="129.6"/>
      </g>
     </g>
     <g id="text_15">
      <!-- 0.6 -->
      <g transform="translate(52.368125 132.7021875)scale(0.12 -0.12)">
       <use xlink:href="#ArialMT-30"/>
       <use x="55.615234375" xlink:href="#ArialMT-2e"/>
       <use x="83.3984375" xlink:href="#ArialMT-36"/>
      </g>
     </g>
    </g>
    <g id="ytick_8">
     <g id="line2d_30">
      <g>
       <use style="stroke:#000000;stroke-width:0.5;" x="72.0" xlink:href="#m728421d6d4" y="86.4"/>
      </g>
     </g>
     <g id="line2d_31">
      <g>
       <use style="stroke:#000000;stroke-width:0.5;" x="518.4" xlink:href="#mcb0005524f" y="86.4"/>
      </g>
     </g>
     <g id="text_16">
      <!-- 0.7 -->
      <defs>
       <path d="
M4.73438 62.2031
L4.73438 70.6562
L51.0781 70.6562
L51.0781 63.8125
Q44.2344 56.5469 37.5156 44.4844
Q30.8125 32.4219 27.1562 19.6719
Q24.5156 10.6875 23.7812 0
L14.75 0
Q14.8906 8.45312 18.0625 20.4062
Q21.2344 32.375 27.1719 43.4844
Q33.1094 54.5938 39.7969 62.2031
z
" id="ArialMT-37"/>
      </defs>
      <g transform="translate(52.3625 89.5021875)scale(0.12 -0.12)">
       <use xlink:href="#ArialMT-30"/>
       <use x="55.615234375" xlink:href="#ArialMT-2e"/>
       <use x="83.3984375" xlink:href="#ArialMT-37"/>
      </g>
     </g>
    </g>
    <g id="ytick_9">
     <g id="line2d_32">
      <g>
       <use style="stroke:#000000;stroke-width:0.5;" x="72.0" xlink:href="#m728421d6d4" y="43.2"/>
      </g>
     </g>
     <g id="line2d_33">
      <g>
       <use style="stroke:#000000;stroke-width:0.5;" x="518.4" xlink:href="#mcb0005524f" y="43.2"/>
      </g>
     </g>
     <g id="text_17">
      <!-- 0.8 -->
      <defs>
       <path d="
M17.6719 38.8125
Q12.2031 40.8281 9.5625 44.5312
Q6.9375 48.25 6.9375 53.4219
Q6.9375 61.2344 12.5469 66.5469
Q18.1719 71.875 27.4844 71.875
Q36.8594 71.875 42.5781 66.4219
Q48.2969 60.9844 48.2969 53.1719
Q48.2969 48.1875 45.6719 44.5
Q43.0625 40.8281 37.75 38.8125
Q44.3438 36.6719 47.7812 31.875
Q51.2188 27.0938 51.2188 20.4531
Q51.2188 11.2812 44.7188 5.03125
Q38.2344 -1.21875 27.6406 -1.21875
Q17.0469 -1.21875 10.5469 5.04688
Q4.04688 11.3281 4.04688 20.7031
Q4.04688 27.6875 7.59375 32.3906
Q11.1406 37.1094 17.6719 38.8125
M15.9219 53.7188
Q15.9219 48.6406 19.1875 45.4062
Q22.4688 42.1875 27.6875 42.1875
Q32.7656 42.1875 36.0156 45.375
Q39.2656 48.5781 39.2656 53.2188
Q39.2656 58.0625 35.9062 61.3594
Q32.5625 64.6562 27.5938 64.6562
Q22.5625 64.6562 19.2344 61.4219
Q15.9219 58.2031 15.9219 53.7188
M13.0938 20.6562
Q13.0938 16.8906 14.875 13.375
Q16.6562 9.85938 20.1719 7.92188
Q23.6875 6 27.7344 6
Q34.0312 6 38.125 10.0469
Q42.2344 14.1094 42.2344 20.3594
Q42.2344 26.7031 38.0156 30.8594
Q33.7969 35.0156 27.4375 35.0156
Q21.2344 35.0156 17.1562 30.9062
Q13.0938 26.8125 13.0938 20.6562" id="ArialMT-38"/>
      </defs>
      <g transform="translate(52.345625 46.3021875)scale(0.12 -0.12)">
       <use xlink:href="#ArialMT-30"/>
       <use x="55.615234375" xlink:href="#ArialMT-2e"/>
       <use x="83.3984375" xlink:href="#ArialMT-38"/>
      </g>
     </g>
    </g>
    <g id="text_18">
     <!-- Power -->
     <defs>
      <path d="
M7.71875 0
L7.71875 71.5781
L34.7188 71.5781
Q41.8438 71.5781 45.6094 70.9062
Q50.875 70.0156 54.4375 67.5469
Q58.0156 65.0938 60.1875 60.6406
Q62.3594 56.2031 62.3594 50.875
Q62.3594 41.75 56.5469 35.4219
Q50.7344 29.1094 35.5469 29.1094
L17.1875 29.1094
L17.1875 0
z

M17.1875 37.5469
L35.6875 37.5469
Q44.875 37.5469 48.7344 40.9688
Q52.5938 44.3906 52.5938 50.5938
Q52.5938 55.0781 50.3125 58.2656
Q48.0469 61.4688 44.3438 62.5
Q41.9375 63.1406 35.5 63.1406
L17.1875 63.1406
z
" id="ArialMT-50"/>
      <path d="
M16.1562 0
L0.296875 51.8594
L9.375 51.8594
L17.625 21.9219
L20.7031 10.7969
Q20.9062 11.625 23.3906 21.4844
L31.6406 51.8594
L40.6719 51.8594
L48.4375 21.7812
L51.0312 11.8594
L54 21.875
L62.8906 51.8594
L71.4375 51.8594
L55.2188 0
L46.0938 0
L37.8438 31.0625
L35.8438 39.8906
L25.3438 0
z
" id="ArialMT-77"/>
      <path d="
M3.32812 25.9219
Q3.32812 40.3281 11.3281 47.2656
Q18.0156 53.0312 27.6406 53.0312
Q38.3281 53.0312 45.1094 46.0156
Q51.9062 39.0156 51.9062 26.6562
Q51.9062 16.6562 48.9062 10.9062
Q45.9062 5.17188 40.1562 2
Q34.4219 -1.17188 27.6406 -1.17188
Q16.75 -1.17188 10.0312 5.8125
Q3.32812 12.7969 3.32812 25.9219
M12.3594 25.9219
Q12.3594 15.9688 16.7031 11.0156
Q21.0469 6.0625 27.6406 6.0625
Q34.1875 6.0625 38.5312 11.0312
Q42.875 16.0156 42.875 26.2188
Q42.875 35.8438 38.5 40.7969
Q34.125 45.75 27.6406 45.75
Q21.0469 45.75 16.7031 40.8125
Q12.3594 35.8906 12.3594 25.9219" id="ArialMT-6f"/>
      <path d="
M6.5 0
L6.5 51.8594
L14.4062 51.8594
L14.4062 44
Q17.4375 49.5156 20 51.2656
Q22.5625 53.0312 25.6406 53.0312
Q30.0781 53.0312 34.6719 50.2031
L31.6406 42.0469
Q28.4219 43.9531 25.2031 43.9531
Q22.3125 43.9531 20.0156 42.2188
Q17.7188 40.4844 16.75 37.4062
Q15.2812 32.7188 15.2812 27.1562
L15.2812 0
z
" id="ArialMT-72"/>
     </defs>
     <g transform="translate(44.91375 232.625625)rotate(-90.0)scale(0.12 -0.12)">
      <use xlink:href="#ArialMT-50"/>
      <use x="66.69921875" xlink:href="#ArialMT-6f"/>
      <use x="122.314453125" xlink:href="#ArialMT-77"/>
      <use x="194.53125" xlink:href="#ArialMT-65"/>
      <use x="250.146484375" xlink:href="#ArialMT-72"/>
     </g>
    </g>
   </g>
   <g id="patch_18">
    <path d="
M72 43.2
L518.4 43.2" style="fill:none;stroke:#000000;"/>
   </g>
   <g id="patch_19">
    <path d="
M518.4 388.8
L518.4 43.2" style="fill:none;stroke:#000000;"/>
   </g>
   <g id="patch_20">
    <path d="
M72 388.8
L518.4 388.8" style="fill:none;stroke:#000000;"/>
   </g>
   <g id="patch_21">
    <path d="
M72 388.8
L72 43.2" style="fill:none;stroke:#000000;"/>
   </g>
  </g>
 </g>
 <defs>
  <clipPath id="p7ff5b81e1d">
   <rect height="345.6" width="446.4" x="72.0" y="43.2"/>
  </clipPath>
 </defs>
</svg>
